<svg width="475" height="398" viewBox="0 0 475 398" fill="none" xmlns="http://www.w3.org/2000/svg">
<path d="M470.393 128.264C472.823 113.944 463.184 100.365 448.863 97.935C434.543 95.5052 420.964 105.144 418.534 119.465L404.663 201.216C402.233 215.537 411.873 229.115 426.193 231.545C440.513 233.975 454.092 224.336 456.522 210.016L470.393 128.264Z" fill="white" stroke="#071515" stroke-linecap="round" stroke-linejoin="round"/>
<path d="M111.229 276.629C118.365 276.629 124.149 270.845 124.149 263.709C124.149 256.574 118.365 250.789 111.229 250.789C104.094 250.789 98.3091 256.574 98.3091 263.709C98.3091 270.845 104.094 276.629 111.229 276.629Z" fill="#FFC54A" stroke="#071515" stroke-linecap="round" stroke-linejoin="round"/>
<path d="M283.701 43.7396C295.409 43.7396 304.901 34.248 304.901 22.5396C304.901 10.8311 295.409 1.3396 283.701 1.3396C271.992 1.3396 262.5 10.8311 262.5 22.5396C262.5 34.248 271.992 43.7396 283.701 43.7396Z" fill="#DDF8F0" stroke="#071515" stroke-linecap="round" stroke-linejoin="round"/>
<path d="M399.589 339.209C414.241 339.209 426.119 327.331 426.119 312.679C426.119 298.027 414.241 286.149 399.589 286.149C384.937 286.149 373.059 298.027 373.059 312.679C373.059 327.331 384.937 339.209 399.589 339.209Z" fill="#FFC54A" stroke="#071515" stroke-linecap="round" stroke-linejoin="round"/>
<path d="M429.92 196.859L285.391 176.859C277.554 175.775 269.573 177.062 262.475 180.553C255.376 184.045 249.485 189.581 245.56 196.449L196.25 282.739L237.73 306.739L282.651 228.639L375.5 241.879" fill="white"/>
<path d="M429.92 196.859L285.391 176.859C277.554 175.775 269.573 177.062 262.475 180.553C255.376 184.045 249.485 189.581 245.56 196.449L196.25 282.739L237.73 306.739L282.651 228.639L375.5 241.879" stroke="#071515" stroke-linecap="round" stroke-linejoin="round"/>
<path d="M250.272 285.183L208.801 261.134L196.27 282.743L237.741 306.792L250.272 285.183Z" fill="#FF6E45" stroke="#071515" stroke-linecap="round" stroke-linejoin="round"/>
<path d="M196.248 282.74L188.438 295.46L169.348 285.76C166.655 284.39 163.537 284.112 160.643 284.981C157.749 285.851 155.301 287.802 153.808 290.43V290.43C152.333 293.026 151.901 296.087 152.602 298.99C153.302 301.894 155.081 304.421 157.578 306.06L207.398 338.73C208.636 339.541 210.028 340.086 211.487 340.331C212.947 340.575 214.441 340.514 215.875 340.15C217.309 339.786 218.652 339.127 219.818 338.217C220.984 337.306 221.948 336.163 222.648 334.859L237.728 306.79L196.248 282.74Z" fill="white" stroke="#071515" stroke-linecap="round" stroke-linejoin="round"/>
<path d="M237.749 306.79L205.459 288.07L225.519 299.7C228.799 301.6 231.21 304.702 232.244 308.348C233.278 311.995 232.853 315.901 231.059 319.24L226.719 327.32L237.749 306.79Z" fill="#071515" stroke="#071515" stroke-linecap="round" stroke-linejoin="round"/>
<path d="M336.828 208.24L331.708 210.24C316.558 216.49 305.708 222.719 298.258 230.819L322.408 234.27L340.898 217.379L336.828 208.24Z" fill="#071515" stroke="#071515" stroke-linecap="round" stroke-linejoin="round"/>
<path d="M380.181 242.149C407.768 242.149 430.131 219.786 430.131 192.199C430.131 164.613 407.768 142.249 380.181 142.249C352.594 142.249 330.231 164.613 330.231 192.199C330.231 219.786 352.594 242.149 380.181 242.149Z" fill="white" stroke="#071515" stroke-linecap="round" stroke-linejoin="round"/>
<path d="M390.019 87.3874C403.222 88.6262 415.392 95.059 423.852 105.271C432.312 115.482 436.369 128.637 435.13 141.839L429.961 196.928L330.448 187.591L335.622 132.453C336.872 119.269 343.302 107.119 353.5 98.67C363.699 90.2212 376.832 86.1635 390.019 87.3874V87.3874Z" fill="white" stroke="#071515" stroke-linecap="round" stroke-linejoin="round"/>
<path d="M364.961 87.2165L414.652 91.8788C418.238 92.2152 421.544 93.9624 423.841 96.7359C426.139 99.5094 427.241 103.082 426.904 106.668L426.677 109.087L349.944 101.888L350.171 99.4686C350.508 95.8827 352.255 92.5774 355.028 90.2797C357.802 87.982 361.375 86.8801 364.961 87.2165V87.2165Z" fill="white" stroke="#071515" stroke-linecap="round" stroke-linejoin="round"/>
<path d="M396.47 16.8192C389.029 16.1158 381.528 17.1804 374.576 19.9261C367.625 22.6718 361.421 27.021 356.47 32.6192L387.94 62.6192L353.12 91.4692L425.25 98.2392C431.762 91.9071 436.325 83.8417 438.396 74.9976C440.468 66.1535 439.963 56.901 436.94 48.3351C433.918 39.7692 428.505 32.2486 421.341 26.6633C414.178 21.078 405.564 17.6619 396.52 16.8192H396.47Z" fill="white" stroke="#071515" stroke-linecap="round" stroke-linejoin="round"/>
<path d="M356.451 32.6394C349.351 40.6424 345.158 50.8063 344.55 61.4874C343.942 72.1685 346.955 82.7425 353.101 91.4994L387.921 62.6394L356.451 32.6394Z" fill="#071515" stroke="#071515" stroke-linecap="round" stroke-linejoin="round"/>
<path d="M359.99 35.9995C359.526 35.5547 358.972 35.2152 358.365 35.004C357.758 34.7928 357.113 34.7149 356.473 34.7756C355.834 34.8364 355.214 35.0343 354.658 35.356C354.102 35.6776 353.622 36.1154 353.25 36.6395C348.092 43.9007 345.076 52.464 344.546 61.3548C344.015 70.2456 345.992 79.1067 350.25 86.9295C350.569 87.5061 351.011 88.0052 351.545 88.3914C352.079 88.7775 352.691 89.041 353.339 89.1633C353.986 89.2855 354.653 89.2634 355.291 89.0986C355.929 88.9337 356.523 88.6302 357.03 88.2095L384.03 65.8395C384.516 65.4366 384.912 64.9353 385.19 64.3685C385.468 63.8017 385.624 63.1823 385.645 62.5512C385.667 61.9201 385.555 61.2915 385.316 60.7069C385.077 60.1223 384.717 59.5949 384.26 59.1595L359.99 35.9995Z" fill="#DDF8F0" stroke="#071515" stroke-linecap="round" stroke-linejoin="round"/>
<path d="M387.919 62.6394L357.829 38.9194C357.325 38.5216 356.744 38.2324 356.123 38.0702C355.502 37.9079 354.853 37.876 354.219 37.9765C353.585 38.077 352.979 38.3078 352.438 38.6542C351.898 39.0006 351.435 39.4553 351.079 39.9894L356.449 32.6394L387.919 62.6394Z" fill="#071515" stroke="#071515" stroke-linecap="round" stroke-linejoin="round"/>
<path d="M387.918 62.6296L353.098 91.4796L384.938 94.4696L396.608 95.5597L399.588 63.7296L387.918 62.6296Z" fill="#FFAFFD" stroke="#071515" stroke-linecap="round" stroke-linejoin="round"/>
<path d="M387.92 74.3494C394.392 74.3494 399.64 69.1022 399.64 62.6294C399.64 56.1566 394.392 50.9094 387.92 50.9094C381.447 50.9094 376.2 56.1566 376.2 62.6294C376.2 69.1022 381.447 74.3494 387.92 74.3494Z" fill="#FF6E45" stroke="#071515" stroke-linecap="round" stroke-linejoin="round"/>
<path d="M413.59 97.1493L425.45 98.2693C428.231 95.1342 430.769 91.7912 433.04 88.2693C428.57 94.1693 422.25 97.9693 413.59 97.1493Z" fill="#071515" stroke="#071515" stroke-linecap="round" stroke-linejoin="round"/>
<path d="M394.469 79.2994L377.209 77.6794" stroke="#071515" stroke-linecap="round" stroke-linejoin="round"/>
<path d="M394 84.3094L373.78 82.4094" stroke="#071515" stroke-linecap="round" stroke-linejoin="round"/>
<path d="M393.531 89.3095L368.821 86.9895" stroke="#071515" stroke-linecap="round" stroke-linejoin="round"/>
<path d="M399.59 63.7292L411.8 64.8693L409.84 85.7892L396.61 95.5593L399.59 63.7292Z" fill="#7D3DF9" stroke="#071515" stroke-linecap="round" stroke-linejoin="round"/>
<path d="M426.909 106.639C427.379 101.639 423.909 98.1093 415.489 97.3093L425.489 98.2493C426.702 100.869 427.192 103.766 426.909 106.639Z" fill="#071515" stroke="#071515" stroke-linecap="round" stroke-linejoin="round"/>
<path d="M350.18 99.4593C350.73 93.5293 354.25 91.5893 363.18 92.4593L353.18 91.5193C353.18 91.5193 350.74 93.4593 350.18 99.4593Z" fill="#071515" stroke="#071515" stroke-linecap="round" stroke-linejoin="round"/>
<path d="M410.159 50.5592C412.412 50.5592 414.239 48.7325 414.239 46.4792C414.239 44.2258 412.412 42.3992 410.159 42.3992C407.905 42.3992 406.079 44.2258 406.079 46.4792C406.079 48.7325 407.905 50.5592 410.159 50.5592Z" fill="#071515" stroke="#071515" stroke-linecap="round" stroke-linejoin="round"/>
<path d="M431.122 184.088L331.649 174.755L330.45 187.529L429.924 196.861L431.122 184.088Z" fill="white" stroke="#071515" stroke-linecap="round" stroke-linejoin="round"/>
<path d="M363.546 177.75L343.016 175.824L341.818 188.598L362.347 190.524L363.546 177.75Z" fill="#FFC54A" stroke="#071515" stroke-linecap="round" stroke-linejoin="round"/>
<path d="M407.96 106.249L334.719 118.859C328.957 119.878 323.831 123.133 320.46 127.916C317.088 132.698 315.743 138.62 316.719 144.389L433.539 124.289C432.528 118.511 429.269 113.368 424.475 109.987C419.681 106.606 413.742 105.262 407.96 106.249Z" fill="white" stroke="#071515" stroke-linecap="round" stroke-linejoin="round"/>
<path d="M433.5 124.289L316.68 144.389C317.701 150.152 320.959 155.278 325.743 158.65C330.527 162.022 336.449 163.366 342.22 162.389L415.46 149.789C421.221 148.775 426.349 145.527 429.727 140.751C433.105 135.976 434.461 130.059 433.5 124.289Z" fill="#071515" stroke="#071515" stroke-linecap="round" stroke-linejoin="round"/>
<path d="M433.36 132.49C433.55 131.546 433.507 130.57 433.235 129.646C432.962 128.723 432.469 127.88 431.797 127.19C431.125 126.501 430.295 125.986 429.379 125.689C428.463 125.393 427.489 125.324 426.54 125.49L316.68 144.39C317.701 150.153 320.959 155.278 325.743 158.65C330.527 162.022 336.449 163.366 342.22 162.39L415.46 149.789C419.831 149.025 423.873 146.968 427.063 143.885C430.254 140.801 432.447 136.832 433.36 132.49V132.49Z" fill="white" stroke="#071515" stroke-linecap="round" stroke-linejoin="round"/>
<path d="M360.059 137.76L369.629 157.71L342.219 162.43L360.059 137.76Z" fill="#071515" stroke="#071515" stroke-linecap="round" stroke-linejoin="round"/>
<path d="M296.09 99.5831L346.179 119.597C351.625 121.773 355.983 126.023 358.295 131.412C360.606 136.801 360.683 142.887 358.507 148.333V148.333C356.331 153.778 352.082 158.136 346.693 160.448C341.304 162.76 335.217 162.836 329.772 160.661L279.682 140.646C276.407 139.338 273.785 136.781 272.394 133.54C271.004 130.298 270.958 126.637 272.266 123.361L278.812 106.98C279.46 105.358 280.421 103.88 281.64 102.629C282.86 101.379 284.314 100.381 285.919 99.6924C287.524 99.0038 289.249 98.6381 290.995 98.6161C292.742 98.5942 294.475 98.9165 296.097 99.5645L296.09 99.5831Z" fill="white" stroke="#071515" stroke-linecap="round" stroke-linejoin="round"/>
<path d="M290.571 104.249L271.731 131.379C272.226 133.448 273.212 135.367 274.604 136.975C275.996 138.583 277.755 139.833 279.731 140.619C284.791 125.719 290.871 111.899 290.571 104.249Z" fill="#071515" stroke="#071515" stroke-linecap="round" stroke-linejoin="round"/>
<path d="M335.566 114.43L309.954 104.24L304.004 119.194L329.616 129.384L335.566 114.43Z" fill="#DDF8F0" stroke="#071515" stroke-linecap="round" stroke-linejoin="round"/>
<path d="M278.251 95.8395C255.181 85.0495 236.541 77.4895 211.451 93.8395C210.279 94.6029 209.456 95.7986 209.162 97.166C208.868 98.5335 209.126 99.9617 209.881 101.139V101.139C210.618 102.282 211.765 103.098 213.086 103.42C214.407 103.742 215.801 103.545 216.981 102.869C229.791 95.5495 236.041 93.6595 241.571 94.7995C235.571 94.5595 219.141 100.899 217.821 121.349C217.75 122.618 218.182 123.864 219.025 124.816C219.868 125.767 221.052 126.347 222.321 126.429V126.429C223.554 126.505 224.769 126.107 225.718 125.317C226.668 124.528 227.28 123.405 227.431 122.179C228.511 113.879 234.691 106.519 240.561 105.459C231.611 109.009 227.501 119.729 233.981 131.049C234.495 131.953 235.304 132.654 236.272 133.034C237.24 133.414 238.309 133.452 239.301 133.139C239.87 132.952 240.397 132.653 240.851 132.261C241.305 131.87 241.677 131.392 241.946 130.855C242.214 130.319 242.374 129.735 242.416 129.137C242.458 128.539 242.382 127.938 242.191 127.369C240.331 121.769 241.111 118.719 243.721 116.799C244.601 122.919 252.471 130.499 265.521 129.409L278.251 95.8395Z" fill="white" stroke="#071515" stroke-linecap="round" stroke-linejoin="round"/>
<path d="M284.008 94.6023C285.283 95.1115 286.444 95.8667 287.427 96.8248C288.409 97.7829 289.194 98.9252 289.735 100.186C290.276 101.447 290.563 102.803 290.58 104.175C290.597 105.547 290.344 106.909 289.835 108.184L281.171 129.867C280.662 131.141 279.907 132.303 278.949 133.285C277.991 134.268 276.848 135.052 275.587 135.593C274.326 136.134 272.971 136.421 271.598 136.439C270.226 136.456 268.864 136.203 267.59 135.694V135.694C265.834 134.992 264.428 133.621 263.683 131.884C262.937 130.146 262.913 128.183 263.614 126.427L274.746 98.5685C275.447 96.8125 276.818 95.4072 278.555 94.6616C280.293 93.9161 282.256 93.8914 284.012 94.5931L284.008 94.6023Z" fill="white" stroke="#071515" stroke-linecap="round" stroke-linejoin="round"/>
<path d="M316.989 119.959L319.529 114.189" stroke="#071515" stroke-linecap="round" stroke-linejoin="round"/>
<path d="M324.74 122.48C326.292 122.48 327.55 121.222 327.55 119.67C327.55 118.118 326.292 116.86 324.74 116.86C323.188 116.86 321.93 118.118 321.93 119.67C321.93 121.222 323.188 122.48 324.74 122.48Z" fill="#FFAFFD" stroke="#071515" stroke-linecap="round" stroke-linejoin="round"/>
<path d="M311.56 117.21C313.112 117.21 314.37 115.952 314.37 114.4C314.37 112.848 313.112 111.59 311.56 111.59C310.009 111.59 308.75 112.848 308.75 114.4C308.75 115.952 310.009 117.21 311.56 117.21Z" fill="#FF6E45" stroke="#071515" stroke-linecap="round" stroke-linejoin="round"/>
<path d="M360.099 116.673L379.375 113.364L386.892 157.141L375.784 159.049C373.618 159.421 371.393 158.917 369.598 157.648C367.803 156.38 366.586 154.45 366.214 152.284L360.094 116.644L360.099 116.673Z" fill="#DDF8F0" stroke="#071515" stroke-linecap="round" stroke-linejoin="round"/>
<path d="M360.309 197.639L317.859 220.499C312.993 223.12 308.729 226.729 305.34 231.095C301.951 235.46 299.512 240.486 298.179 245.849L273.399 345.429L319.849 357.279L341.099 264.499L401.249 237.519" fill="white"/>
<path d="M360.309 197.639L317.859 220.499C312.993 223.12 308.729 226.729 305.34 231.095C301.951 235.46 299.512 240.486 298.179 245.849L273.399 345.429L319.849 357.279L341.099 264.499L401.249 237.519" stroke="#071515" stroke-linecap="round" stroke-linejoin="round"/>
<path d="M325.429 332.87L279.579 321.17L273.399 345.38L319.859 357.23L325.429 332.87Z" fill="#FF6E45" stroke="#071515" stroke-linecap="round" stroke-linejoin="round"/>
<path d="M358.759 256.349L322.309 244.109L335.999 286.719L341.099 264.449L358.759 256.349Z" fill="#7D3DF9" stroke="#071515" stroke-linecap="round" stroke-linejoin="round"/>
<path d="M273.4 345.38L269.89 359.64L248.35 355.52C245.386 354.951 242.316 355.543 239.776 357.173C237.235 358.804 235.418 361.348 234.7 364.28V364.28C233.985 367.188 234.405 370.26 235.875 372.87C237.344 375.48 239.753 377.432 242.61 378.33L299.41 396.17C300.823 396.613 302.312 396.758 303.783 396.595C305.255 396.432 306.676 395.965 307.957 395.223C309.238 394.481 310.351 393.48 311.224 392.285C312.098 391.09 312.713 389.726 313.03 388.28L319.85 357.22L273.4 345.38Z" fill="white" stroke="#071515" stroke-linecap="round" stroke-linejoin="round"/>
<path d="M319.85 357.23L273.4 345.38L272.2 350.25C283.16 349.61 294.153 350.669 304.79 353.39L319.85 357.23Z" fill="#071515" stroke="#071515" stroke-linecap="round" stroke-linejoin="round"/>
<path d="M326.788 234.84C328.309 228.766 327.495 222.342 324.508 216.84L317.858 220.42C312.993 223.041 308.729 226.65 305.34 231.015C301.95 235.381 299.511 240.406 298.178 245.77L296.348 253.12C302.809 254.729 309.644 253.707 315.351 250.279C321.059 246.852 325.173 241.298 326.788 234.84V234.84Z" fill="#088EAC" stroke="#071515" stroke-linecap="round" stroke-linejoin="round"/>
<path d="M246.12 195.489C249.003 199.468 253.072 202.433 257.744 203.958C262.415 205.483 267.45 205.491 272.126 203.981C276.802 202.47 280.881 199.518 283.777 195.548C286.673 191.578 288.239 186.793 288.25 181.879C288.253 180.3 288.092 178.725 287.77 177.179L285.36 176.839C277.713 175.788 269.926 176.993 262.955 180.306C255.984 183.619 250.133 188.896 246.12 195.489V195.489Z" fill="#088EAC" stroke="#071515" stroke-linecap="round" stroke-linejoin="round"/>
<path d="M70.2996 81.3796H159.14C160.775 81.381 162.363 81.9275 163.652 82.9327C164.942 83.9379 165.859 85.3444 166.26 86.9297L182.56 150.8C182.834 151.884 182.856 153.017 182.626 154.112C182.396 155.207 181.919 156.235 181.231 157.117C180.543 158 179.663 158.714 178.658 159.205C177.653 159.695 176.548 159.95 175.43 159.95H86.5896C84.9529 159.95 83.3627 159.405 82.0711 158.4C80.7795 157.394 79.8605 155.987 79.4596 154.4L63.1696 90.5297C62.8956 89.4449 62.8729 88.312 63.1031 87.2171C63.3334 86.1223 63.8105 85.0944 64.4981 84.2119C65.1858 83.3294 66.0659 82.6156 67.0713 82.1247C68.0767 81.6339 69.1808 81.3791 70.2996 81.3796V81.3796Z" fill="#E6E6E6" stroke="#071515" stroke-linecap="round" stroke-linejoin="round"/>
<path d="M79.2996 81.3796H168.14C169.775 81.381 171.363 81.9275 172.652 82.9327C173.942 83.9379 174.859 85.3444 175.26 86.9297L191.56 150.8C191.834 151.884 191.856 153.017 191.626 154.112C191.396 155.207 190.919 156.235 190.231 157.117C189.543 158 188.663 158.714 187.658 159.205C186.653 159.695 185.548 159.95 184.43 159.95H95.5896C93.9529 159.95 92.3627 159.405 91.0711 158.4C89.7795 157.394 88.8605 155.987 88.4596 154.4L72.1696 90.5297C71.8956 89.4449 71.8729 88.312 72.1031 87.2171C72.3334 86.1223 72.8105 85.0944 73.4981 84.2119C74.1858 83.3294 75.0659 82.6156 76.0713 82.1247C77.0767 81.6339 78.1808 81.3791 79.2996 81.3796V81.3796Z" fill="#666666" stroke="#071515" stroke-linecap="round" stroke-linejoin="round"/>
<path d="M81.2583 90.2092H165.768L178.378 138.899H93.8683L81.2583 90.2092Z" fill="#7D3DF9" stroke="#071515" stroke-linecap="round" stroke-linejoin="round"/>
<path d="M265.791 147.119H162.741C159.195 147.119 156.321 149.994 156.321 153.539C156.321 157.085 159.195 159.959 162.741 159.959H265.791C269.336 159.959 272.211 157.085 272.211 153.539C272.211 149.994 269.336 147.119 265.791 147.119Z" fill="white" stroke="#071515" stroke-linecap="round" stroke-linejoin="round"/>
<path d="M162.99 147.119H95.3502C91.8045 147.119 88.9302 149.994 88.9302 153.539C88.9302 157.085 91.8045 159.959 95.3502 159.959H162.99C166.536 159.959 169.41 157.085 169.41 153.539C169.41 149.994 166.536 147.119 162.99 147.119Z" fill="#E6E6E6" stroke="#071515" stroke-linecap="round" stroke-linejoin="round"/>
<path d="M102.359 114.21C107.258 114.21 111.229 110.238 111.229 105.34C111.229 100.441 107.258 96.4695 102.359 96.4695C97.46 96.4695 93.4888 100.441 93.4888 105.34C93.4888 110.238 97.46 114.21 102.359 114.21Z" fill="#FFAFFD" stroke="#071515" stroke-linecap="round" stroke-linejoin="round"/>
<path d="M111.249 105.34H102.379V114.21C102.379 114.21 111.249 114.31 111.249 105.34Z" fill="#FF6E45" stroke="#071515" stroke-linecap="round" stroke-linejoin="round"/>
<path d="M123.799 106.659H131.419L137.429 129.069H129.809L123.799 106.659Z" fill="#DDF8F0" stroke="#071515" stroke-linecap="round" stroke-linejoin="round"/>
<path d="M140.299 111.59H147.919L152.559 129.07H144.939L140.299 111.59Z" fill="#FFAFFD" stroke="#071515" stroke-linecap="round" stroke-linejoin="round"/>
<path d="M152.559 100.039H160.179L167.689 129.069H160.069L152.559 100.039Z" fill="#FF6E45" stroke="#071515" stroke-linecap="round" stroke-linejoin="round"/>
<path d="M143.219 23.6594H203.729L216.329 72.3494H155.829L143.219 23.6594Z" fill="#FF6E45" stroke="#071515" stroke-linecap="round" stroke-linejoin="round"/>
<path d="M163.59 60.3596H201.55L203.26 65.9896H165.3L163.59 60.3596Z" fill="#7D3DF9" stroke="#071515" stroke-linecap="round" stroke-linejoin="round"/>
<path d="M60.4893 170.059H128.119C129.34 170.06 130.525 170.466 131.49 171.214C132.454 171.961 133.144 173.008 133.449 174.189L143.249 211.859C143.46 212.673 143.481 213.525 143.312 214.348C143.143 215.172 142.788 215.946 142.273 216.611C141.759 217.276 141.099 217.814 140.344 218.185C139.59 218.556 138.76 218.749 137.919 218.749H70.2493C69.0289 218.748 67.8435 218.342 66.8788 217.595C65.9142 216.847 65.2249 215.801 64.9193 214.619L55.1693 176.949C54.9568 176.136 54.9336 175.285 55.1015 174.461C55.2693 173.638 55.6237 172.863 56.1374 172.198C56.6511 171.533 57.3106 170.994 58.065 170.623C58.8194 170.252 59.6487 170.06 60.4893 170.059V170.059Z" fill="#DDF8F0" stroke="#071515" stroke-linecap="round" stroke-linejoin="round"/>
<path d="M65.5591 179.13H124.719L132.629 209.65H73.4691L65.5591 179.13Z" fill="#7D3DF9" stroke="#071515" stroke-linecap="round" stroke-linejoin="round"/>
<path d="M81.2583 186.269H112.728L116.928 202.509H85.4583L81.2583 186.269Z" fill="#FFAFFD" stroke="#071515" stroke-linecap="round" stroke-linejoin="round"/>
<path d="M1.10986 152.099H66.9698L75.4399 184.819H9.57986L1.10986 152.099Z" fill="#2EB8F3" stroke="#071515" stroke-linecap="round" stroke-linejoin="round"/>
<path d="M10.6489 158.439H21.7989L26.9889 178.479H15.8289L10.6489 158.439Z" fill="white" stroke="#071515" stroke-linecap="round" stroke-linejoin="round"/>
<path d="M30.0981 158.439H41.2581L46.4482 178.479H35.2881L30.0981 158.439Z" fill="white" stroke="#071515" stroke-linecap="round" stroke-linejoin="round"/>
<path d="M49.5493 158.439H60.7094L65.8994 178.479H54.7393L49.5493 158.439Z" fill="white" stroke="#071515" stroke-linecap="round" stroke-linejoin="round"/>
<path d="M165.829 197.599C173.158 197.599 179.099 191.658 179.099 184.329C179.099 177 173.158 171.059 165.829 171.059C158.5 171.059 152.559 177 152.559 184.329C152.559 191.658 158.5 197.599 165.829 197.599Z" fill="#FFAFFD" stroke="#071515" stroke-linecap="round" stroke-linejoin="round"/>
<path d="M131.859 72.3496C137.874 72.3496 142.749 67.474 142.749 61.4596C142.749 55.4452 137.874 50.5696 131.859 50.5696C125.845 50.5696 120.969 55.4452 120.969 61.4596C120.969 67.474 125.845 72.3496 131.859 72.3496Z" fill="#DDF8F0" stroke="#071515" stroke-linecap="round" stroke-linejoin="round"/>
<path d="M156.879 34.7595H176.959" stroke="#071515" stroke-linecap="round" stroke-linejoin="round"/>
<path d="M158.149 39.7595H189.229" stroke="#071515" stroke-linecap="round" stroke-linejoin="round"/>
<path d="M159.43 44.7493H179.51" stroke="#071515" stroke-linecap="round" stroke-linejoin="round"/>
<path d="M160.7 49.7493H184.98" stroke="#071515" stroke-linecap="round" stroke-linejoin="round"/>
<path d="M161.969 54.7493H196.269" stroke="#071515" stroke-linecap="round" stroke-linejoin="round"/>
<path d="M100.091 153.534C100.091 153.372 99.9584 153.24 99.7955 153.24C99.6325 153.24 99.5005 153.372 99.5005 153.534C99.5005 153.697 99.6325 153.829 99.7955 153.829C99.9584 153.829 100.091 153.697 100.091 153.534Z" fill="#071515" stroke="#071515" stroke-linecap="round" stroke-linejoin="round"/>
<path d="M107.091 153.534C107.091 153.372 106.958 153.24 106.795 153.24C106.633 153.24 106.5 153.372 106.5 153.534C106.5 153.697 106.633 153.829 106.795 153.829C106.958 153.829 107.091 153.697 107.091 153.534Z" fill="#071515" stroke="#071515" stroke-linecap="round" stroke-linejoin="round"/>
<path d="M363.538 177.749L362.348 190.519L384.028 192.519L376.318 191.799C374.286 191.608 372.341 190.882 370.68 189.697C369.019 188.512 367.7 186.908 366.858 185.049L363.538 177.749Z" fill="#071515" stroke="#071515" stroke-linecap="round" stroke-linejoin="round"/>
</svg>
